<?xml version="1.0" standalone="no"?>
<!DOCTYPE svg PUBLIC "-//W3C//DTD SVG 20010904//EN"
 "http://www.w3.org/TR/2001/REC-SVG-20010904/DTD/svg10.dtd">
<svg version="1.0" xmlns="http://www.w3.org/2000/svg"
 width="100.000000pt" height="100.000000pt" viewBox="0 0 100.000000 100.000000"
 preserveAspectRatio="xMidYMid meet">
<metadata>
Created by potrace 1.14, written by Peter Selinger 2001-2017
</metadata>
<g transform="translate(0.000000,100.000000) scale(0.100000,-0.100000)"
fill="#000000" stroke="none">
<path d="M455 982 c-155 -16 -305 -115 -377 -248 -106 -199 -72 -426 88 -581
118 -115 303 -163 461 -119 355 98 474 546 215 805 -100 101 -252 157 -387
143z m187 -155 c79 -35 142 -97 181 -176 29 -59 32 -75 32 -151 -1 -103 -28
-172 -99 -248 -69 -74 -148 -106 -256 -106 -108 0 -187 32 -256 106 -71 76
-99 145 -99 248 1 102 27 171 96 245 101 109 268 144 401 82z"/>
<path d="M416 735 c-57 -20 -108 -65 -138 -124 -53 -100 -23 -238 65 -305 103
-79 242 -71 332 19 99 98 98 250 -1 349 -69 70 -168 93 -258 61z m154 -134
c51 -36 68 -117 35 -167 -68 -105 -231 -56 -228 68 2 98 114 155 193 99z"/>
</g>
</svg>
